<?xml version="1.0" encoding="UTF-8"?>
<!DOCTYPE svg PUBLIC "-//W3C//DTD SVG 1.1//EN" "http://www.w3.org/Graphics/SVG/1.1/DTD/svg11.dtd">
<!-- Creator: CorelDRAW 2020 (64-Bit) -->
<svg xmlns="http://www.w3.org/2000/svg" xml:space="preserve" width="175mm" height="114mm" version="1.1" style="shape-rendering:geometricPrecision; text-rendering:geometricPrecision; image-rendering:optimizeQuality; fill-rule:evenodd; clip-rule:evenodd"
viewBox="0 0 17500 11400"
 xmlns:xlink="http://www.w3.org/1999/xlink"
 xmlns:xodm="http://www.corel.com/coreldraw/odm/2003">
 <defs>
  <style type="text/css">
   <![CDATA[
    .fil23 {fill:#FEFEFE;fill-rule:nonzero}
    .fil13 {fill:#FDC944;fill-rule:nonzero}
    .fil22 {fill:#F9D1D4;fill-rule:nonzero}
    .fil1 {fill:#FACBA1;fill-rule:nonzero}
    .fil30 {fill:#F6B295;fill-rule:nonzero}
    .fil0 {fill:#F5A786;fill-rule:nonzero}
    .fil42 {fill:#F39B97;fill-rule:nonzero}
    .fil2 {fill:#EC694C;fill-rule:nonzero}
    .fil28 {fill:#ED7E7E;fill-rule:nonzero}
    .fil29 {fill:#E44C46;fill-rule:nonzero}
    .fil38 {fill:#F5EFF1;fill-rule:nonzero}
    .fil34 {fill:#F4E8EA;fill-rule:nonzero}
    .fil12 {fill:#F2B205;fill-rule:nonzero}
    .fil43 {fill:#EFEFF0;fill-rule:nonzero}
    .fil11 {fill:#EEEBDC;fill-rule:nonzero}
    .fil49 {fill:#EDB939;fill-rule:nonzero}
    .fil52 {fill:#EBECEC;fill-rule:nonzero}
    .fil20 {fill:#E7D8D9;fill-rule:nonzero}
    .fil48 {fill:#E0A418;fill-rule:nonzero}
    .fil36 {fill:#E1DED7;fill-rule:nonzero}
    .fil31 {fill:#D36C4C;fill-rule:nonzero}
    .fil35 {fill:#CF6C4D;fill-rule:nonzero}
    .fil33 {fill:#C43A35;fill-rule:nonzero}
    .fil53 {fill:#D8D6D5;fill-rule:nonzero}
    .fil39 {fill:#CE8524;fill-rule:nonzero}
    .fil47 {fill:#BE7C27;fill-rule:nonzero}
    .fil16 {fill:#C39125;fill-rule:nonzero}
    .fil18 {fill:#A32F2C;fill-rule:nonzero}
    .fil21 {fill:#833E24;fill-rule:nonzero}
    .fil40 {fill:#B9AE9E;fill-rule:nonzero}
    .fil19 {fill:#6C2925;fill-rule:nonzero}
    .fil17 {fill:#9C6E29;fill-rule:nonzero}
    .fil27 {fill:#4B3B42;fill-rule:nonzero}
    .fil24 {fill:#5F9DC7;fill-rule:nonzero}
    .fil26 {fill:#2F2A29;fill-rule:nonzero}
    .fil32 {fill:#5488A7;fill-rule:nonzero}
    .fil6 {fill:#2E282B;fill-rule:nonzero}
    .fil41 {fill:#44414A;fill-rule:nonzero}
    .fil3 {fill:#2A2828;fill-rule:nonzero}
    .fil44 {fill:#2A2928;fill-rule:nonzero}
    .fil15 {fill:#497997;fill-rule:nonzero}
    .fil5 {fill:#3C3A43;fill-rule:nonzero}
    .fil46 {fill:#3A373F;fill-rule:nonzero}
    .fil4 {fill:#343237;fill-rule:nonzero}
    .fil51 {fill:#46718C;fill-rule:nonzero}
    .fil45 {fill:#312F34;fill-rule:nonzero}
    .fil37 {fill:#312F34;fill-rule:nonzero}
    .fil8 {fill:#327CBE;fill-rule:nonzero}
    .fil14 {fill:#3F6284;fill-rule:nonzero}
    .fil50 {fill:#3C5979;fill-rule:nonzero}
    .fil25 {fill:#282D33;fill-rule:nonzero}
    .fil9 {fill:#33445C;fill-rule:nonzero}
    .fil7 {fill:#2D548F;fill-rule:nonzero}
    .fil10 {fill:#263B57;fill-rule:nonzero}
   ]]>
  </style>
 </defs>
 <g id="Layer_x0020_1">
  <metadata id="CorelCorpID_0Corel-Layer"/>
  <g id="_2431914502960">
   <path class="fil0" d="M8270.12 8105.97c-39.57,137.94 21.36,414.02 -29.74,646.51 -51.08,232.47 -393.28,1167.09 -442.07,1361.2 -79.37,315.18 -456.91,201.71 -393.85,-80.75 42.51,-460.79 124.02,-1507.79 297.12,-2033.81l568.54 106.85z"/>
   <path class="fil1" d="M7469.68 9658.35c-14.02,126.66 -30.63,316.83 -30.63,316.83 83.97,-13.35 176.55,32.37 204.98,116.73 48.9,-82.75 116.3,-317.12 116.3,-317.12 -113.31,-6.59 -263.32,-48.92 -290.65,-116.44z"/>
   <path class="fil0" d="M9947.83 7947.46c365.82,546.43 461.8,1563.06 552.79,1965.38 -45.19,234.57 -250.28,221.97 -364.92,110.24 -297.77,-414.77 -642.23,-1297.44 -732.42,-1879.03l544.55 -196.59z"/>
   <path class="fil0" d="M9004.87 4798.79c306.93,167.94 515.71,571.81 587.7,925.07 55.31,271.26 -374.65,729.49 -718.41,794.2 -343.79,64.74 -814.14,-203.37 -922.59,-473.5 -108.44,-270.06 -25.63,-897.33 201.99,-1110.65l851.31 -135.12z"/>
   <path class="fil0" d="M7999.9 5813.79c-247.89,478.16 -312.86,1829.89 -294.08,2234.2 14.32,308 323.9,444.7 505.94,139.9 182.08,-304.87 624.58,-1581.25 605.87,-1846.35l-817.73 -527.75z"/>
   <path class="fil0" d="M9581 5780.9c167.15,261.07 436.99,1773.85 411.08,2153.14 -26.02,380.7 -285.66,559.1 -545.24,238.7 -307.65,-379.8 -740.93,-1655.51 -757.79,-1832.44l891.95 -559.4z"/>
   <path class="fil0" d="M8356.83 2826.39c429.14,202.72 838.23,1900.21 284.89,2160.64 -452.15,212.92 -1865.96,-749.83 -1723.06,-1264.33 70.29,-253.1 395.64,-335.44 434.61,-513.82 140.25,-114.57 299.36,-215.66 461.76,-291.8 225.58,-53.34 410.66,-152.75 541.8,-90.69z"/>
   <path class="fil0" d="M7456.8 2548.6c-9.24,139.43 128.69,323.63 246.13,342.84 151.89,28.09 237.68,-20.81 337.68,-27.7 100.02,-6.89 44.14,146.32 -121.81,275.57 -165.95,129.25 -603.22,277.11 -565.76,119.31 29.48,-124.13 -186.67,-323.33 -265.5,-320.5l369.26 -389.52z"/>
   <path class="fil2" d="M7267.89 2997.89c147.77,45.99 279.38,-41.25 307.23,-33.82 92.14,24.64 248.52,6.73 266.48,-66.35 -196.24,19.13 -293.11,-111.43 -344.31,-189.41l-229.4 289.58z"/>
   <path class="fil0" d="M10500.62 9897.58c29.32,111.51 343.11,444.05 405.26,620.53 71.05,202.01 -102,365.45 -196.15,414.21 -94.14,48.73 -368.75,-76.85 -431.54,-210.2 -62.74,-133.36 -173.28,-736.15 -173.28,-736.15l395.71 -88.39z"/>
   <path class="fil1" d="M10398.73 9584.02c19.06,126.09 71.58,315.18 71.58,315.18 -100.68,-24.1 -161.4,56.05 -213.81,138.16 -52.07,-80.75 -131.59,-306.87 -131.59,-306.87 114.93,11.14 249.19,-77.86 273.82,-146.47z"/>
   <path class="fil3" d="M9587.31 5612.31c20.91,121.03 28.57,243.02 24.29,356.98 -10.45,276.6 -536.66,620.05 -886,601.52 -349.28,-18.58 -742.81,-390.3 -784.29,-678.37 -12.45,-86.99 -0.33,-201.33 30.11,-322.92l1615.89 42.79z"/>
   <path class="fil3" d="M9581.29 5691.15c374.21,557.41 484.67,1928.54 592.91,2238.04 108.16,309.49 249.34,668.66 161.78,1058.99 -21.88,174.12 -485.37,311.08 -623.92,227.84 -321.83,-137.57 -635.21,-970.76 -888.26,-1748.22 -97.39,-299.24 -243.54,-789.43 -243.54,-789.43l1001.03 -987.22z"/>
   <path class="fil3" d="M10305.86 8980.25c78.7,9.63 80.43,72.41 91.48,193.81 11.02,121.25 52.98,183.62 22.44,311.6 -107.59,181.19 -408.94,212.73 -480.6,175.32 -71.58,-37.37 -89.14,-107.57 -130.84,-200.62 -41.69,-93.05 -136.02,-247.62 -78.27,-288.44l575.79 -191.67z"/>
   <path class="fil3" d="M7904.62 5673.67c-342.26,713.1 -396.19,1807.51 -439.61,2245.25 -43.39,437.78 -106.82,956.16 15.29,1198.33 130.8,153.92 464.95,199.26 608,116.22 169.08,-173.74 339.4,-712.13 410.95,-1060.95 71.59,-348.98 314.18,-1259.91 360.7,-1549.38l-955.33 -949.47z"/>
   <path class="fil3" d="M8106.06 9137.33c67.24,42.03 26.11,120.42 -15.04,235.21 -41.13,114.63 -24.72,165.69 -106.39,268.96 -173.96,118.88 -472.01,18.09 -521.21,-46.02 -49.22,-64.17 -23.94,-132.94 -22.54,-234.79 1.5,-102 -7.36,-279.72 62.19,-292.2l602.99 68.84z"/>
   <path class="fil4" d="M8489.73 7092.62c-12.08,469.5 -383.14,1762.35 -542.99,2037.79 -85.88,60.65 -249.28,64.66 -411.3,-15.08 -185.93,-208.59 23.69,-2529.59 317.18,-3203.53 92.86,88.21 271.55,162.32 667.09,216.57 395.52,54.29 1045.61,-205.89 1045.61,-205.89 0,0 -12.94,2.04 122.08,264.5 147.41,316.11 256.75,1491.36 335.97,1696.19 79.13,204.72 317.69,681.67 243.73,1097.08 -53.8,145.57 -363.71,216.55 -523.88,155.65 -309.91,-117.9 -723.38,-1188.44 -978.89,-2117.35 -123.16,-67.79 -546.37,-243.59 -614.96,-335.21 83.1,236.4 342.68,318.29 340.36,409.28z"/>
   <path class="fil5" d="M9153.4 6153.22c86.78,306.86 355.41,590.64 611.97,583.76 170.69,925.23 115.08,1621.75 185.36,1711.12 70.26,89.4 112.9,-288.97 112.9,-288.97 112.64,270.85 178.66,794.08 61.28,889.99 -117.53,95.84 -341.26,19.37 -626.29,-473.45 -426.27,-737.21 -601.6,-1364.67 -632.8,-1513.55 175.36,18.32 329.84,-102.26 329.84,-102.26 -374.02,-3.99 -1099.32,-227.09 -1207.8,-609.44 74.39,-113.29 108.48,-274.24 108.48,-274.24 275.66,109.44 721.88,166.93 1057.06,77.04z"/>
   <path class="fil3" d="M9303.56 6217.96c94.67,315.96 382.59,371.72 520.72,310.44 13.95,-150.5 -30.23,-497.9 -252.42,-530.91 -222.17,-33.05 -374.39,0.15 -268.3,220.47z"/>
   <path class="fil4" d="M9365.11 6242.48c-15,59.89 181.26,254.07 368.27,212.23 16.72,-40.76 -12.64,-214.76 -71.59,-238.96 -58.99,-24.11 -273.86,-64.72 -296.68,26.73z"/>
   <path class="fil4" d="M10285.79 9065.22c78.54,-27.97 71.32,73.13 79.93,178.47 8.61,105.16 35.38,145.72 28.43,223.4 -60.01,150.62 -302.36,190.47 -365.49,160.16 -63.16,-30.26 -98.62,-161.97 -137.42,-249.83 -38.83,-87.9 -78.31,-146.81 -18.26,-172.01 64.4,16.59 326.45,-28.38 412.81,-140.19z"/>
   <path class="fil4" d="M7504.87 9142.74c-56.58,-17.03 -45.4,61.74 -42.31,167.23 2.9,105.54 -21.34,176.82 -6.04,253.03 69.28,118.88 323.41,128.47 382.87,91.59 59.51,-37.07 80.3,-171.9 109.33,-263.45 29.02,-91.51 66.54,-178.35 4.08,-196.85 -76.68,30.3 -346,35.64 -447.93,-51.55z"/>
   <path class="fil5" d="M9781.01 6590.81c-47.11,168.21 -392.13,46.47 -474.25,-252.69 83.06,186.52 366.38,276.45 474.25,252.69z"/>
   <path class="fil3" d="M8039.42 5984.41c-81.58,244.71 -254.86,375.59 -344.47,332.96 26.67,-132.27 97.62,-427.86 163.07,-490.3 82.81,66.35 135.8,113.09 181.4,157.34z"/>
   <path class="fil4" d="M7963.94 5986.82c31.49,50.82 -109.29,294.56 -220.48,272.35 -12.9,-39.9 41.4,-328 97.46,-346.39 26.76,-8.8 103.31,42.26 123.02,74.04z"/>
   <path class="fil5" d="M7706.44 6373.08c33.73,164.83 308.67,-27.06 310.72,-286.75 -91.44,189.72 -216.63,307.21 -310.72,286.75z"/>
   <path class="fil5" d="M8023.82 6286.87c-68.45,155.2 -219.69,214.57 -300.52,214.91 -204.52,842.81 -278.49,2482.79 -123.88,2605.58 154.62,122.72 356.82,-379.53 533.98,-1101.03 177.05,-721.48 199.38,-894.84 165.98,-934.62 -33.47,-39.74 -237.82,-356.8 -203.04,-592.71l-72.52 -192.13z"/>
   <path class="fil5" d="M10273.46 9108.15c22.14,-26.84 26.43,100.61 39.51,159.07 13.04,58.58 61.78,192.88 40.08,238.34 -21.62,45.64 -123.05,116.92 -227.24,109.48 -81.21,-36.4 -91.96,-291.65 -129.48,-329.32 -37.48,-37.48 -62.97,-80.79 -8.23,-80.27 54.77,0.64 234.19,-35.15 285.36,-97.3z"/>
   <path class="fil5" d="M7823.09 9224.41c66.76,-6.36 -23.08,101.54 -38.53,159.44 -15.41,57.9 -32.24,206.03 -69.9,246.45 -37.62,40.3 -209.78,-3.91 -236.55,-62.94 -26.72,-58.95 32.95,-262.62 16.97,-313.22 -15.88,-50.72 -18.27,-101.25 29.88,-75.08 99.68,54.41 217.9,52.98 298.13,45.35z"/>
   <path class="fil6" d="M10961.48 10658.54c112.87,104.29 91.25,507.41 -79.14,572.38 -155.5,59.33 -330.86,-23.2 -439.66,-119.22 -165.35,-145.95 -234.23,-349.28 -245.85,-378 -30.37,-75.05 -105.83,-138.51 -140.79,-230.47 -25.27,-66.36 -31.4,-403.99 -5.61,-428.87l911.05 584.18z"/>
   <path class="fil5" d="M10995.66 11043.27c-31.97,92.75 -186.79,197.72 -422.63,65.38 -235.88,-132.27 -291.98,-366.61 -321.75,-457.03 -6.21,194.31 112.9,400.9 285.09,510.27 172.19,109.37 418.23,139.93 459.29,-118.62z"/>
   <path class="fil6" d="M10283.95 10109.77c-55.76,-108.61 201.89,-272.95 266.71,-133.5 64.7,139.48 478.42,659.41 299.27,752.95 -179.03,93.54 -445.71,-385.14 -565.98,-619.45z"/>
   <path class="fil5" d="M10471.37 9935.78c-22.52,-16.73 -155.39,34.43 -134.11,82.78 21.17,48.31 213.63,-23.79 134.11,-82.78z"/>
   <path class="fil5" d="M10531.59 10086.5c-11.99,56.43 103.66,239.53 181.19,348.45 77.6,108.88 126.77,207.23 66.92,228.82 -93.05,33.57 -263.78,-339.39 -308.33,-449.85 -44.52,-110.54 49.29,-138.21 60.22,-127.42z"/>
   <path class="fil7" d="M10064 9915.7c45.95,69.78 108.55,161.33 183.85,170.27 72.04,8.58 128.92,3.76 174.07,78.13 45.13,74.33 213.63,421.28 263.45,482.9 53.24,74.78 163.47,23.5 142.57,-56.25 -15.72,-60.12 -247.16,-422.1 -281.3,-477.52 -24.86,-40.33 -67.34,-128.5 -49.15,-182.31 -4.24,-28.64 -12.7,-72.97 -26.12,-135.83 42.37,-28.32 81.8,25.15 109.32,126.55 27.49,101.28 264.54,397.47 378.16,552.49 113.58,155.12 138.51,509.44 -38.05,636.52 -105.64,76.05 -421.27,52.25 -578.54,-266.38 -120.57,-244.31 -211.86,-614.82 -270.81,-686.82 -71.74,-87.53 -69.63,-228.93 -7.45,-241.75z"/>
   <path class="fil8" d="M10076.22 10049.51c32.93,112.94 180.17,170.46 227.95,168.13 47.82,-2.33 104.97,38.8 36.81,56.62 -68.24,17.82 -120.57,6.35 -120.57,6.35 91.55,162.58 175.27,411.5 242.87,519.75 79.67,127.75 297.21,235.54 448.87,155.95 154.45,-81.02 100.39,-359.88 33.87,-469.55 -74.51,-122.87 -302.83,-374.96 -314.6,-403.79 -12.41,27.82 -27.26,33.76 -46.06,6.76 -10.9,-15.63 -2.63,-79.66 -10.18,-141.89 -7.45,-62.26 -31.29,-131.85 -62.91,-136.89 -30.68,-4.96 11.28,66.89 7.94,116.25 -3.35,49.93 34.47,162.98 93.73,259.76 39.51,64.63 151.47,239.08 224.49,379.77 50.94,98.24 -102.65,194 -172.95,84.29 -45.9,-71.55 -114.9,-200.92 -155.47,-280.51 -91.12,-179.19 -123.39,-277.28 -205.84,-265.02 -122.07,18.12 -179.6,-67.11 -203.44,-122.6 -23.91,-55.5 -37.29,22.78 -24.51,66.62z"/>
   <path class="fil9" d="M10563.29 10018.23c-33.5,12.37 -21.62,64.17 20.5,54.59 42.1,-9.59 20.18,-69.63 -20.5,-54.59z"/>
   <path class="fil10" d="M10863.31 10536.2c-33.45,12.37 -21.58,64.18 20.54,54.55 42.1,-9.62 20.18,-69.63 -20.54,-54.55z"/>
   <path class="fil10" d="M10770.56 10368.22c-33.46,12.4 -21.58,64.1 20.53,54.55 42.19,-9.59 20.26,-69.66 -20.53,-54.55z"/>
   <path class="fil10" d="M10669.5 10209.26c-33.5,12.48 -21.58,64.17 20.54,54.62 42.1,-9.62 20.18,-69.7 -20.54,-54.62z"/>
   <path class="fil10" d="M10358.01 10144.36c-34.17,10.68 -24.85,62.94 17.64,55.5 42.59,-7.34 23.79,-68.39 -17.64,-55.5z"/>
   <path class="fil10" d="M10630.89 10664.44c-34.14,10.6 -24.81,62.9 17.67,55.46 42.6,-7.37 23.72,-68.47 -17.67,-55.46z"/>
   <path class="fil10" d="M10531.22 10495.22c-34.14,10.68 -24.92,62.98 17.67,55.49 42.56,-7.4 23.72,-68.5 -17.67,-55.49z"/>
   <path class="fil10" d="M10445.35 10320.69c-34.14,10.64 -24.86,62.9 17.71,55.5 42.55,-7.37 23.72,-68.5 -17.71,-55.5z"/>
   <path class="fil11" d="M10382.45 10148.83c66.93,57.19 254.45,72.8 294.16,69.56 26.13,13.28 2.03,35.57 2.03,35.57 -58.96,17.56 -207.57,13.27 -310.22,-65.84 -22.55,-24.99 -2.74,-51.28 14.03,-39.29z"/>
   <path class="fil11" d="M10557.42 10063.12c6.92,86.77 -88.13,242.61 -113.27,271.75 -4.52,28.38 26.92,23.12 26.92,23.12 47.59,-35.49 129.33,-154.03 125.53,-282.13 -6.84,-32.67 -39.02,-33.16 -39.18,-12.74z"/>
   <path class="fil11" d="M10471.59 10321.59c68.65,55.01 259.43,63.7 299.8,58.88 26.62,12.38 2.56,35.91 2.56,35.91 -59.63,19.85 -210.73,21.2 -316.12,-54.63 -23.19,-24.36 -3.5,-51.66 13.76,-40.16z"/>
   <path class="fil11" d="M10648.04 10228.35c8.31,87.27 -86.1,248.19 -111.33,278.48 -4.06,28.77 27.78,22.38 27.78,22.38 47.86,-37.64 129.26,-160.39 123.59,-289.5 -7.41,-32.59 -40.16,-31.92 -40.04,-11.36z"/>
   <path class="fil11" d="M10565.77 10494.88c68.09,51.73 259.01,52.79 299.47,46.58 26.54,11.28 2.06,35.42 2.06,35.42 -60.12,21.84 -211.37,29.06 -315.85,-41.77 -22.86,-23.12 -2.74,-50.94 14.32,-40.23z"/>
   <path class="fil11" d="M10743.87 10395.88c7.1,85.95 -89.71,248.71 -115.38,279.62 -4.63,28.57 27.41,20.94 27.41,20.94 48.49,-38.99 131.73,-163.51 127.93,-290.85 -7.06,-32.04 -39.81,-30.05 -39.96,-9.71z"/>
   <path class="fil11" d="M10470.76 10081.54c-53.87,-39.93 -216.02,-69.25 -244.67,35.79 -28.66,105.12 34.73,196.82 105.01,177.98 70.38,-18.79 130.76,-172.9 140.27,-188.77 -0.61,-25 -12.86,-24.14 -36.51,-8.54 -23.76,15.49 -84.52,163.78 -120.72,160.62 -48.61,-4.25 -59.18,-114.75 -32.53,-150.61 26.77,-35.95 151.67,-18.16 167.35,-3.42l21.8 -23.05z"/>
   <path class="fil11" d="M10483.17 10080.26c35.83,-15.38 294.99,23.72 415.56,116.06 9.59,19.47 -4.32,64.26 -22.29,46.1 -17.94,-18.12 -276,-144.53 -405.07,-135.88l11.8 -26.28z"/>
   <path class="fil11" d="M10448.4 10075.9c1.05,-83.05 147.64,-190.73 236.75,-113.69 89.1,76.92 54.66,154.6 -21.25,125.04 -46.21,-17.97 -93.35,-7.96 -130.12,2.07 -23.65,6.43 -43.01,12.9 -55.16,11.88 -31.05,-2.63 -14.05,-22.37 23.84,-48.2 35.94,-24.59 91.44,-16.84 134.48,-9.13 30.87,5.52 55.31,11.05 61.63,4.7 15.26,-15.12 -46.25,-84.48 -115.35,-71.4 -49.74,9.33 -95.8,62.67 -96.29,108.2l-38.53 -9.47z"/>
   <path class="fil11" d="M10455.02 10108.73c13.11,35.52 2.44,169.71 -166.9,276.63 -23.88,14.18 -5.11,52.56 27.97,38.09 32.97,-14.44 231.34,-199.38 169.04,-322.36 -14.37,-19.55 -30.11,7.64 -30.11,7.64z"/>
   <path class="fil11" d="M10464.49 10048.27c-29.33,2.25 -78.02,77.97 -18.28,76.58 59.71,-1.39 70.95,-80.68 18.28,-76.58z"/>
   <path class="fil6" d="M6807.72 10667.83c-130.83,92.48 -52.17,348.15 16.08,414.65 132.07,128.74 389.98,83.88 559.53,-67.03 164.71,-146.59 230.01,-290.1 274.14,-280.1 44.18,10.04 162.66,-108.8 188.06,-157.87 25.39,-49.14 44.58,-241.37 25.51,-253.29l-1063.32 343.64z"/>
   <path class="fil5" d="M6757.53 10924.28c26.18,79.14 163.14,211.52 416.2,116.02 253.02,-95.54 359.91,-307.62 402.89,-392.59 -22.97,193.06 -183.38,380.07 -369.98,462.44 -186.63,82.38 -422.93,43.01 -449.11,-185.87z"/>
   <path class="fil6" d="M7618.47 10188.09c63.99,-93.54 -180.31,-255.06 -255.75,-134.37 -75.4,120.61 -528.15,557.07 -356.85,655.31 171.26,98.17 474.48,-319.12 612.6,-520.94z"/>
   <path class="fil5" d="M7389.12 10118.12c3.37,57.6 -138.35,221.37 -231.33,317.43 -92.98,95.99 -133.7,175.39 -81.46,211.64 93.5,64.93 292.67,-291.49 353.22,-394.1 60.55,-102.6 -28.05,-144.03 -40.43,-134.97z"/>
   <path class="fil5" d="M7460.07 10023.67c24.8,-13.15 143.77,45.2 115.57,89.82 -28.2,44.6 -203.01,-43.38 -115.57,-89.82z"/>
   <path class="fil7" d="M7867.97 10166.69c25.62,-67.51 9.21,-142.26 -42.64,-160.23 -2.99,72.11 -67.92,171.63 -169.28,169.59 -72.55,-1.46 -128.88,-6.61 -179.6,56.89 -50.75,63.51 -245.69,363.07 -300.11,414.73 -58.86,63.28 -164.78,8.5 -137.77,-61.73 20.34,-52.93 279.15,-361.23 317.45,-408.49 27.94,-34.44 99.94,-151.48 83.03,-202.27 -8.49,-33.47 -93.99,-18.8 -129.33,70.42 -35.31,89.18 -367.95,344.64 -493.21,475.56 -125.34,130.99 -127.28,390.41 35.64,493.05 132.03,83.16 446.72,42.14 628.2,-232.8 36.57,-55.46 73.11,-115.35 108.34,-174.64 80.27,-111.22 258.85,-177.16 280.86,-246.15 16.67,-52.22 5.86,-145.38 -1.58,-193.93z"/>
   <path class="fil8" d="M7829.94 10156.51c-41.63,99.22 -192.81,139.63 -240.28,133.81 -47.46,-5.76 -107.67,26.8 -41.1,48.15 66.66,21.36 119.69,15.12 119.69,15.12 -103.86,139.38 -243.64,315.89 -319.41,408.23 -106.41,129.79 -387.47,183.85 -499.46,104.52 -106.81,-75.68 -69.6,-253.52 14.03,-358.19 83.81,-105.04 396.52,-339.53 410.55,-364.61 10.1,26.05 34.9,45.94 55.73,23.08 12.08,-13.27 0.19,-92.52 12.5,-148.02 12.34,-55.53 97.28,-43.87 54.3,-15 -49.82,33.46 -46.6,152.42 -113.21,235.05 -44.4,55.13 -169.62,203.71 -253.25,324.84 -58.42,84.56 87.22,182.8 165.84,89.33 51.32,-60.9 130.15,-172.15 176.68,-240.73 104.8,-154.37 144.59,-240.28 225.8,-222.87 120.24,25.86 184.27,-46.47 212.32,-94.67 28.17,-48.16 35.46,23.42 19.27,61.96z"/>
   <path class="fil9" d="M7346.81 10090.52c32.48,13.77 16.62,59.52 -24.6,47.57 -41.29,-11.89 -14.74,-64.3 24.6,-47.57z"/>
   <path class="fil9" d="M7007.52 10534.02c32.42,13.76 16.57,59.51 -24.62,47.56 -41.25,-11.96 -14.73,-64.29 24.62,-47.56z"/>
   <path class="fil10" d="M7113.06 10389.84c32.4,13.79 16.53,59.47 -24.76,47.55 -41.22,-11.91 -14.73,-64.29 24.76,-47.55z"/>
   <path class="fil10" d="M7226.09 10254.41c32.46,13.84 16.56,59.55 -24.68,47.6 -41.18,-11.89 -14.74,-64.33 24.68,-47.6z"/>
   <path class="fil10" d="M7541.68 10220.16c33.21,12.22 19.9,58.65 -21.91,48.58 -41.9,-9.93 -18.37,-63.47 21.91,-48.58z"/>
   <path class="fil10" d="M7230.13 10657.53c33.21,12.21 19.86,70.83 -21.92,60.79 -41.89,-9.96 -18.33,-75.76 21.92,-60.79z"/>
   <path class="fil10" d="M7333.25 10522.25c33.2,12.22 19.92,58.65 -21.96,48.57 -41.81,-9.96 -18.33,-63.57 21.96,-48.57z"/>
   <path class="fil10" d="M7441.36 10366.93c33.22,12.26 19.91,58.62 -21.94,48.69 -41.86,-9.99 -18.37,-63.61 21.94,-48.69z"/>
   <path class="fil11" d="M7516.92 10222.27c-71.14,46.27 -259.26,45.78 -298.61,39.85 -27.04,9.92 -4.79,31.88 -4.79,31.88 57.37,20.38 205.93,28.04 314.36,-35.27 24.42,-20.75 6.69,-45.98 -10.96,-36.46z"/>
   <path class="fil11" d="M7349.22 10131.39c-13.62,77.68 68.96,225.51 91.85,253.78 2.21,25.87 -28.72,18.69 -28.72,18.69 -44.66,-35.69 -116.92,-148.85 -103.23,-264 9.35,-28.92 41.51,-26.86 40.1,-8.47z"/>
   <path class="fil11" d="M7414.74 10371.04c-72.78,44.24 -263.6,37.26 -303.47,29.77 -27.49,9.14 -5.31,32.15 -5.31,32.15 57.9,22.52 208.4,35.46 319.33,-24.66 25.02,-20.16 7.51,-46.32 -10.55,-37.26z"/>
   <path class="fil11" d="M7246.02 10273.24c-15.07,78.06 66.58,230.4 89.35,259.65 1.88,26.24 -29.47,18.01 -29.47,18.01 -44.73,-37.59 -116.31,-154.56 -100.64,-270.47 9.91,-28.87 42.48,-25.68 40.76,-7.19z"/>
   <path class="fil11" d="M7307.33 10519.88c-71.89,41.32 -262.26,27.49 -302.13,18.73 -27.3,8.12 -4.79,31.76 -4.79,31.76 58.24,24.37 208.44,42.6 318.1,-13.11 24.61,-19.14 6.66,-45.69 -11.18,-37.38z"/>
   <path class="fil11" d="M7137.48 10416.83c-13.72,76.92 70.13,231.11 93.32,260.96 2.43,26.09 -28.95,16.77 -28.95,16.77 -45.33,-38.95 -118.6,-157.58 -104.95,-272.05 9.51,-28.32 42.05,-24.02 40.58,-5.68z"/>
   <path class="fil11" d="M7434.16 10154.74c56.81,-31.8 220.7,-45.68 241.11,51.24 20.42,97.01 -49.93,174.68 -118.55,152.28 -68.6,-22.42 -116.84,-166 -125.15,-181.04 2.59,-22.48 14.74,-20.71 37.14,-4.89 22.4,15.83 71.47,154.19 107.83,154.15 48.8,-0.04 67.92,-98.76 44.1,-133.2 -23.87,-34.48 -149.8,-28.2 -166.55,-16.06l-19.93 -22.48z"/>
   <path class="fil11" d="M7421.85 10152.6c-34.48,-16.59 -295.88,-1.51 -423.23,72.37 -11.04,16.8 -0.68,58.2 18.62,43.24 19.34,-14.93 286.38,-108.81 414.33,-90.99l-9.72 -24.62z"/>
   <path class="fil11" d="M7456.85 10151.4c5.43,-74.94 -132.32,-183.33 -227.14,-120.88 -94.77,62.41 -66.45,135.09 11.49,114.37 77.94,-20.71 152.49,26.85 183.6,26.96 31.12,0.07 15.74,-19.11 -19.97,-45.27 -58.31,-42.82 -181.36,-4.4 -195.23,-19.25 -14.03,-14.77 52.69,-72.48 120.54,-55.42 48.88,12.29 90.66,63.96 87.63,105.05l39.08 -5.56z"/>
   <path class="fil11" d="M7447.72 10180.49c-15.85,30.99 -15.59,152.73 144.9,262.24 22.74,14.63 1.01,47.75 -30.78,32.15 -31.79,-15.49 -215.17,-197.65 -143.51,-303.64 15.83,-16.5 29.39,9.25 29.39,9.25z"/>
   <path class="fil11" d="M7443.02 10125.23c29.02,4.32 71.66,76.32 12.23,70.45 -59.43,-5.86 -64.45,-78.24 -12.23,-70.45z"/>
   <path class="fil12" d="M5855.82 751.37c-22.89,-120.83 158.42,-214.35 225.1,-102.39 66.52,111.73 -205.07,184.12 -225.1,102.39z"/>
   <path class="fil13" d="M5905.32 631.23c-42.58,30.68 -42.58,103.23 40.32,59.38 82.75,-44.15 42.28,-118.69 -40.32,-59.38z"/>
   <path class="fil14" d="M7372.23 1230.2c0,0 797.9,46.3 929.15,371.61 75.03,186.5 -256.65,145.56 -755.88,832.54 -1034.23,29.92 -1002.04,-995.77 -1002.04,-995.77l828.77 -208.38z"/>
   <path class="fil15" d="M7498.52 1270.76c392.82,-11.17 720.02,175.32 771.28,318.89 -90.17,-94.51 -592.54,-314.3 -771.28,-318.89z"/>
   <path class="fil16" d="M7454.35 1363.2c359.64,-13.08 724.23,170.28 780.01,279.56 55.81,109.2 -401.32,286.21 -640.03,703.2 -238.64,417.07 -327.19,-731.29 -304.86,-756.7l164.88 -226.06z"/>
   <path class="fil17" d="M7462.67 1354.25c723.67,53.95 659.19,440.79 168.95,789.53 -490.2,348.73 -284.05,-407.2 -284.05,-407.2l115.1 -382.33z"/>
   <path class="fil1" d="M5940.35 2658.19c-36.97,32.9 -218.95,-3.83 -238.62,141.73 -12.16,89.15 254.4,275.57 415.47,154.96 67.24,-50.35 13.99,-165.52 11.69,-168.05l-188.54 -128.64z"/>
   <path class="fil0" d="M6003.54 2814.07c-96.35,-79.05 -209.82,-30.15 -253.75,-3.21 104.55,4.51 280.99,121.22 301.27,154.2l-47.52 -150.99z"/>
   <path class="fil0" d="M5533.4 2111.71c38.51,419.37 394.17,741.93 458.9,831.85 337.15,468.11 970.5,411.94 1207.05,198.81 469.63,-423.42 580.2,-1180.96 185.36,-1623.36 -870.72,-975.25 -1965.53,-145.02 -1851.31,592.7z"/>
   <path class="fil0" d="M7397.81 1766.73c19.83,-83.57 76.31,-381.87 252.24,-356.92 135.02,19.05 209.37,383.93 68.18,531.71 -72.67,76.06 -200.65,2.14 -203.09,-0.77l-117.33 -174.02z"/>
   <path class="fil1" d="M6996.46 1608.24c313.59,220.25 744.93,1026.3 81.69,1540.26 -276.21,213.81 -890.51,135.45 -1117.59,-290.12 -38.97,-73 -154.48,-129.79 -253.63,-389.9 37.72,-57.01 54.7,-172.26 54.7,-172.26 127.33,179.45 173.18,147.39 216.66,117.24 43.54,-30.23 69.03,-296.85 25.54,-419.6 188.47,110.89 333.05,33.98 381.33,-24.49 48.16,-58.39 -11.87,-160.7 -95.91,-241.06 199.83,-145.93 609.43,-188.87 707.21,-120.07z"/>
   <path class="fil0" d="M7024.03 2444.22c70.64,-7.81 43.83,65.43 -26.78,110.51 11.54,-36.89 -54.5,-101.4 26.78,-110.51z"/>
   <path class="fil0" d="M6396.45 3000.49c9.96,70.48 53.68,46.84 94.96,-26.02 -36.44,13.47 -104.13,-38.18 -94.96,26.02z"/>
   <path class="fil18" d="M6478.57 2986.56c-6.58,8.35 69.02,9.72 171.54,38.34 52.2,14.85 105.15,-0.3 163.67,-31.6 108.5,-58.16 186.51,-175.17 188.99,-264.32 1.59,-63.98 8.56,-177.78 18.09,-215.43 2.94,-11.48 -6.61,6.97 -19.16,12.78 -129.22,81.73 -286.92,307.95 -523.13,460.23z"/>
   <path class="fil19" d="M6646.22 2904.53c17.37,53.03 248.67,29 305.66,-86.71 56.92,-115.78 12.87,-221.01 -19.04,-227.28 -40.26,51.43 -301.86,267.46 -286.62,313.99z"/>
   <path class="fil20" d="M6568.15 2918.76c35.36,26.48 105.61,24.87 212.86,-77.14 128.65,-122.52 151.2,-187.56 169.11,-260.8 -107.9,78.75 -260.53,239.15 -381.97,337.94z"/>
   <path class="fil21" d="M6294.34 2598.57c-9.87,-69.18 -292.86,-309.78 -449.91,-159.55 -146.05,139.81 22.87,354.77 106.39,396.71 161.16,81.12 363.17,-101.93 343.52,-237.16z"/>
   <path class="fil22" d="M6298.47 2604.62c-9.38,-65.05 -271.8,-286.9 -422,-148.61 -131.36,120.83 24.29,331.51 103.13,370.15 156.02,76.07 337.23,-94.35 318.87,-221.54z"/>
   <path class="fil23" d="M6298.47 2604.62c-8.87,-61.53 -251.83,-288.05 -375.89,-168.36 -139.02,134 7.35,361.59 98.4,394.5 125.78,45.68 294.84,-105.92 277.49,-226.14z"/>
   <path class="fil24" d="M5966.27 2437.94c-177.86,109.74 35.59,410.26 154.82,393.28 75.93,-21.58 177.98,-109.82 171.95,-185.35 -6.38,-77.98 -203.87,-283.69 -326.77,-207.93z"/>
   <path class="fil21" d="M5691.82 2129.47c29.58,-27.71 179.84,2.21 147.64,21.73 -157.11,95.12 -155.7,182.21 -175.15,173.87 -39.97,-16.91 -9.73,-160.4 27.51,-195.6z"/>
   <path class="fil21" d="M6462.73 1507.61c-46.32,21.81 -93.52,143.03 -74.8,165.99 18.65,22.8 108.73,-122.45 376.59,-147.24 -54.83,-62.75 -253.6,-41.48 -301.79,-18.75z"/>
   <path class="fil25" d="M6015.41 2494.73c-157.18,120.53 70.54,405.59 202.4,272.59 131.8,-133.08 -100.66,-350.65 -202.4,-272.59z"/>
   <path class="fil23" d="M5925.43 2729.74c-6.62,-50.51 109.6,-71.55 126.6,-33.21 17.02,38.11 -116.75,109.81 -126.6,33.21z"/>
   <path class="fil21" d="M6689.7 2298.67c-73.52,-18.14 -282.53,-350.88 -71.77,-536.99 187.6,-165.68 461.02,59 469.88,164.84 16.13,192.16 -254.27,407.43 -398.11,372.15z"/>
   <path class="fil22" d="M6687.19 2299.66c-66.59,-16.45 -253.9,-314.68 -63.77,-484.03 190.34,-169.12 416.09,51.35 424.11,147.16 14.64,173.95 -230.14,368.78 -360.34,336.87z"/>
   <path class="fil23" d="M6730.11 2277.93c-84.98,-11.94 -259.92,-292.18 -84.26,-448.3 175.56,-156.19 375.79,62.76 383.1,151.22 13.5,160.55 -176.2,314.6 -298.84,297.08z"/>
   <path class="fil24" d="M6683.49 1840.04c-149.66,113.95 8.9,450.28 153.96,423.96 108.4,-45.69 215.19,-184.58 207.64,-243.81 -7.6,-59.31 -199.13,-303.97 -361.6,-180.15z"/>
   <path class="fil25" d="M6757.7 1889.25c-142.74,78.13 29.43,424.65 195.12,301.67 165.59,-123.06 -48.02,-382.18 -195.12,-301.67z"/>
   <path class="fil23" d="M6652.73 2165.28c-7.03,-53.64 116.65,-75.99 134.74,-35.28 18.04,40.56 -124.18,116.78 -134.74,35.28z"/>
   <path class="fil23" d="M6909.81 2006.1c-37.91,17.99 7.64,74.47 37.47,60.61 29.79,-14 0.51,-78.74 -37.47,-60.61z"/>
   <path class="fil23" d="M6166.87 2606.15c-37.89,18.06 7.5,74.54 37.29,60.53 29.8,-14.08 0.62,-78.67 -37.29,-60.53z"/>
   <path class="fil26" d="M6732.27 1373.46c292.77,-29.16 572.38,313.83 675.05,564.77 71.86,-29.16 84.02,-80.13 84.02,-80.13 -75.38,-238.22 43.44,-418.6 43.44,-418.6 3.37,-148.46 -141.96,-238.46 -304.52,-303.27l-497.99 237.23z"/>
   <path class="fil27" d="M6849.06 1380.88c219.76,44.39 439.17,362.51 471.71,528.88 44.49,-124.89 -10.92,-328.99 -66.73,-401.08 88.59,90.53 109.13,171.96 109.13,171.96 37.28,-117.24 3.79,-269.22 3.79,-269.22 -263.1,-85.18 -517.9,-30.54 -517.9,-30.54z"/>
   <path class="fil26" d="M5694.36 2027.61c-271.48,222.08 -249.09,603.26 -156.19,620.55 93,17.45 180.24,-581.75 244.16,-764.65 -167.37,420.97 63.69,484.11 124,461.84 60.39,-22.35 -18.87,-556.81 -18.87,-556.81 0,0 333.4,216.42 443,139.66 109.64,-76.91 -142.57,-272.74 -235.29,-297.69 312.47,-221.7 38.64,-671.52 -355.84,-399.85 -394.54,271.75 -501.14,885.72 -167.4,791.06l122.43 5.89z"/>
   <path class="fil27" d="M6031.04 1310.17c-61.84,104.54 -49.38,256.75 -49.38,256.75 -104.54,-40.79 -134.09,-175.17 -134.09,-175.17 -55.63,117.47 58.71,288.73 58.71,288.73 -44.34,64.9 -184.41,195.99 -184.41,195.99 -148.05,-147.85 -107.81,-203.18 -111.44,-248.79 -61.46,108.67 24.63,278.25 45.84,366.26 -190.67,-152.98 -254.78,-465.06 102.74,-648.8 -56.03,107.45 -39.78,218.03 -39.78,218.03 12.38,-148.77 93.62,-277.03 226.62,-296.39l85.19 43.39z"/>
   <path class="fil27" d="M6007.54 1777.29c135.45,116.4 299.68,153.13 338.29,94.89 -10.48,-94.51 -146.48,-186.57 -256.45,-189.25l-81.84 94.36z"/>
   <path class="fil26" d="M5769.44 2078.73c-88.49,221.16 -19.26,357.45 17.94,370.16 -110.32,-4.06 -224.23,-117.32 -72.19,-392.51l54.25 22.35z"/>
   <path class="fil26" d="M5933.99 1793.51c-65.69,130.48 108.46,319.96 199.07,359.68 -132.66,-5.97 -297.92,-127.26 -232.79,-353.55l33.72 -6.13z"/>
   <path class="fil28" d="M6855.74 2936.82c91.15,-80.58 147.16,-196.29 151.76,-305.8 4.63,87.09 6.1,246.65 -102.37,341.31 -108.35,94.74 -255.6,68.72 -324,36.04 36.72,3.45 183.45,8.88 274.61,-71.55z"/>
   <path class="fil29" d="M6660.47 2804.74c49.3,-19.13 26.89,-30.38 85.91,-82.5 44,-38.87 170.45,-122.44 250.16,-204.94 -54.31,98.26 -165.11,208.69 -268.63,304.58 -88.79,82.42 -193.23,138.28 -249.34,164.68 71.7,-59.38 119.89,-157.64 181.9,-181.82z"/>
   <path class="fil30" d="M6492.76 2637.14c-22.23,34.29 -11.25,50.05 -33.03,88.62 -29.28,51.35 24.92,52.73 72.96,17.22 47.95,-35.51 98.27,-73.24 139.09,-116.86 40.85,-43.69 -3.81,-64.74 -47.16,-44.08 -32.39,15.46 -105.58,14.62 -131.86,55.1z"/>
   <path class="fil31" d="M6508.82 2702.96c-15.42,-2.53 -56.99,48.97 -42.74,54.25 24.68,8.88 74.43,-48.9 42.74,-54.25z"/>
   <path class="fil30" d="M6613.31 2492.51c69.74,-10.41 135.92,54.56 64.76,125.04 -20.05,24.34 -16.1,-21.5 -16.1,-21.5 25.86,-44.16 8.15,-67.5 -48.66,-103.54z"/>
   <path class="fil31" d="M6602.82 2625.05c0.82,-18.52 66.98,-50.2 69.3,-33.82 3.59,25.79 -70.8,65.73 -69.3,33.82z"/>
   <path class="fil2" d="M7520.22 1772.77c12.15,-179.99 102.94,-291.03 183.59,-275.95 -54.99,68.34 -117.5,230.35 -94,268.46 73.88,17.37 41.96,104.15 9.61,124.05 29.15,-123.21 -99.2,-116.56 -99.2,-116.56z"/>
   <path class="fil1" d="M7480.18 1701.99c-25.97,-129.41 5.29,-280.17 137.95,-293.64 49.76,4.9 63.54,36.74 63.54,36.74 -50.86,-12.02 -155.31,106.29 -201.49,256.9z"/>
   <path class="fil27" d="M5546.76 2277.93c-106.07,153.2 -67.21,339.01 8.66,338.93 10.77,-235.32 66.34,-408.42 109,-473.31 -59.95,138.28 18.1,249.4 73.85,253.38 -73.96,-71.86 -51.05,-241.9 -20.1,-318.28 10.23,162.09 93.18,232.18 150.14,225.99 -17.86,-90.61 -23.82,-450.9 -23.82,-450.9 -81.1,92.44 -50.31,303.05 -50.31,303.05 -41.3,-94.44 -62.49,-190.33 -62.49,-190.33 -50.81,76.53 -184.93,311.47 -184.93,311.47z"/>
   <path class="fil14" d="M6123.77 1519.17c-53.05,45.07 -257.7,124.28 -517.92,391.51 -73.64,75.53 -239.82,-245.04 58.06,-478.14 273.03,-213.82 513.13,41.71 459.86,86.63zm-304.11 -762.06c-848.55,503.78 -483.58,1488.22 -324.07,1582.65 323.6,-655.99 1565.52,-1181.88 2053.97,-977.01 -214.26,-503.78 -881.31,-1109.26 -1729.9,-605.64z"/>
   <path class="fil15" d="M5896.65 726.27c459.09,-236.01 926.55,89.16 1120.24,420.21 -206.53,2.22 -692.86,233.03 -853.44,326.85 -150.9,-246.57 -421.55,-154.97 -533.85,-69.95 -112.43,85.02 -245.28,352.33 -101.88,546.63 -79.44,65.97 -131.76,196.75 -131.76,196.75 -217.21,-465.21 -168.54,-1076.35 500.69,-1420.49z"/>
   <path class="fil12" d="M6099.75 1536.31c-191.01,66.19 -464.94,211.82 -502.88,300.59 -18.01,42.09 103.29,150.07 145.68,114.79 158.02,-141.34 421.08,-266.23 421.08,-266.23 29.22,-17.53 11.91,-55.64 11.91,-55.64l-75.79 -93.51z"/>
   <path class="fil13" d="M5602.93 1828.18c-24.4,32.29 78.04,135.91 112.97,105.84 34.97,-30 -93.65,-131.32 -112.97,-105.84z"/>
   <path class="fil15" d="M6091.71 1541.28c-183.64,53.72 -443.97,215.58 -456.8,253.61 -12.86,38.19 59.97,127.42 96.21,105.15 36.1,-22.35 263.33,-172.49 438.26,-254.38 199.86,-119.53 623.7,-319.95 991.87,-354.93 -13.65,-51.04 -54.84,-111.5 -138.85,-111.57 -84,-0.08 -499.43,96.34 -930.69,362.12z"/>
   <path class="fil15" d="M5614.17 1924.14c-92.12,88.78 -193.64,239.46 -197.1,277.57 -3.39,38.03 60.62,102.39 69.96,92.75 39.6,-106.45 192.16,-278.64 224.07,-310.16 -75.65,20.58 -96.93,-60.16 -96.93,-60.16z"/>
   <path class="fil32" d="M5834.71 796.52c-469.56,210.22 -688.33,904.93 -412.61,1002.43 21.26,-449.52 535.92,-686.52 752.81,-384.7 399.56,-222.47 173.16,-847.69 -340.2,-617.73z"/>
   <path class="fil32" d="M5655.42 1784.71c-22.68,34.13 31.07,82.73 69.85,80.81 38.82,-1.98 243.13,-175.93 222.61,-209.29 -20.43,-33.22 -256.04,74.07 -292.46,128.48z"/>
   <path class="fil33" d="M7015.26 2469.93c46.6,0.39 -12.07,83.57 -65.27,118.01 10.46,-16.3 40.56,-50.2 49.24,-84.18 7.18,-27.78 2.45,-33.9 16.03,-33.83z"/>
   <path class="fil33" d="M6538.49 2958.1c-38.11,19.13 -64.3,34.89 -88.63,27.93 -15.27,-4.44 -28.91,-1.91 -25.75,10.25 9.47,35.97 35.68,-4.89 109.91,1.92l4.47 -40.1z"/>
   <path class="fil34" d="M6613.01 2922.51c42.98,42.4 279.51,-143.18 276.19,-247.56 -54.53,86.63 -232.28,229.19 -276.19,247.56z"/>
   <path class="fil0" d="M6918.66 3722.7c-178.26,281.92 252.1,1738.65 677.83,1658.8 339.98,-63.76 202.84,-828.19 136.97,-1074.45l-814.8 -584.35z"/>
   <path class="fil35" d="M6902.47 3712.47c-16.02,25.41 -26.83,57.44 -33.95,94.98 -7.07,37.54 -10.34,80.66 -10.35,128.3 0.02,121.77 21.44,273.17 58.84,432.51 56.16,238.97 148.26,495.38 259.76,693.44 55.8,99.03 116.4,183.55 180.72,244.2 32.18,30.26 65.34,54.62 99.56,71.54 34.19,16.92 69.59,26.4 105.46,26.4 12.49,0 25.02,-1.17 37.51,-3.5 23,-4.33 44.23,-11.66 63.57,-21.7 33.87,-17.55 61.8,-43.31 84.26,-74.74 33.71,-47.19 55.55,-106.89 69.27,-173.73 13.7,-66.86 19.19,-140.99 19.2,-217.31 -0.01,-116.37 -12.81,-237.84 -29.73,-345.9 -16.93,-108.05 -37.96,-202.53 -54.64,-264.87l-36.99 9.92c16.27,60.8 37.1,154.27 53.79,260.89 16.7,106.59 29.28,226.41 29.27,339.96 0,56.73 -3.14,111.92 -10.39,163.01 -5.44,38.31 -13.18,74.29 -23.57,106.93 -15.57,48.99 -37.08,90.2 -65.07,120.72 -14,15.31 -29.61,27.98 -47.12,37.94 -17.53,9.92 -36.99,17.1 -58.91,21.24 -10.16,1.89 -20.29,2.82 -30.45,2.82 -19.41,0 -38.93,-3.38 -58.69,-10 -37.03,-12.44 -74.93,-36.47 -112.55,-70.57 -65.89,-59.63 -130.53,-149.71 -189.61,-257.27 -88.73,-161.41 -165.25,-362.03 -219.36,-558.51 -27.06,-98.24 -48.55,-195.47 -63.25,-286.19 -14.7,-90.76 -22.59,-175.04 -22.58,-247.23 -0.01,-45.87 3.19,-86.81 9.69,-121.21 6.46,-34.39 16.31,-62.13 28.68,-81.61l-32.37 -20.46z"/>
   <path class="fil36" d="M6932.58 4506.39c68.88,352.93 263.31,832.67 475.37,903.31 99.12,29.89 165.15,25.57 204.44,-25 143.64,-184.83 -1.7,-782.28 -69.18,-908.99l-610.63 30.68z"/>
   <path class="fil37" d="M7245.26 5277.54c28.65,6.51 107.45,-27.25 107.45,-27.25 29.31,32.56 51.16,84.82 51.16,84.82 -23.28,24.88 -82.98,21.13 -82.98,21.13 -32.25,-18.95 -75.63,-78.7 -75.63,-78.7z"/>
   <path class="fil38" d="M7004.34 4606.86c21.84,162.82 199.34,525.63 311.1,606.02 5.24,-162.76 23.38,-379.05 44.04,-454.51 5.63,-90.84 -8.81,-136.59 -8.81,-136.59 -88.1,28.5 -311.09,5.3 -346.33,-14.92z"/>
   <path class="fil37" d="M7119.65 5070.19c55.37,17.71 153.83,5.61 197.86,-8.45 44.01,-14.06 48.18,83.92 9.38,100.72 -38.82,16.77 -147.79,17.75 -149.5,14.93 -32.76,-43.84 -57.74,-107.2 -57.74,-107.2z"/>
   <path class="fil37" d="M6961.94 4633.92c132.46,60.8 378.28,41.47 468.34,6.77 33.01,35.27 -35.81,114.18 -35.81,114.18 -119.44,43.76 -301.98,29.4 -401.82,-10.86 -20.27,-61.97 -30.71,-110.09 -30.71,-110.09z"/>
   <path class="fil37" d="M7027.99 4850.67c140.13,40.04 383.63,-13.09 467.37,-60.98 38.04,29.81 -18.08,118.24 -18.08,118.24 -111.4,61.39 -305.68,68.73 -410.5,44.1 -29.45,-58.28 -38.79,-101.36 -38.79,-101.36z"/>
   <path class="fil39" d="M8991.14 6086.33c-624.75,39.29 -1173.96,-188.77 -1197.94,-297.62 -33.61,-152.6 163.88,-542.97 143.27,-689.75 -20.61,-146.82 -266.63,-402.14 -429.38,-609.22 -162.76,-207.13 -489.91,-580.09 -671.15,-739.1 23.08,-139.16 170.04,-276.22 356.78,-405.4 355.9,298.54 914.37,-199.5 735.63,-501.02 0,0 198.33,-161.39 466.8,-161.39 215.58,54.26 659.86,531.25 870.48,1168.83 210.65,637.59 520.12,1601.8 515.38,1929.24 -106.89,157.41 -432.33,255.99 -789.87,305.43z"/>
   <path class="fil12" d="M8389.33 2928.71c99.06,239.84 477.27,597.83 611.39,693.71 202.76,274.61 378.08,611.66 369.39,928.6 -8.68,316.95 47.15,728.6 279.31,752.32 40.68,153.02 63.46,339.73 63.46,339.73 -131.88,137.83 -608.2,240.88 -1044.44,230.31 -50.72,-479.25 -279.11,-2944.67 -279.11,-2944.67z"/>
   <path class="fil12" d="M7885.77 5689.35c-40.39,35.11 -33.85,111.21 -30.8,124.44 57.81,66.96 346.26,200.58 576.04,203.77 12.76,-41.47 4.27,-118.08 4.27,-118.08 -188.29,-12.75 -470.82,-111.22 -549.51,-210.13z"/>
   <path class="fil12" d="M7987.86 5135.66c-19.43,184.41 -110.03,423.41 -101.53,527.63 85.11,104.25 374.18,218.63 592.55,209.57 -4.77,-531.4 -138.83,-1850.08 -138.83,-1850.08 -47.02,530.91 -249.69,967.08 -352.19,1112.88z"/>
   <path class="fil13" d="M8065.59 5156.37c-67.01,172.35 -129.42,462.82 -115.92,517.3 52.2,101.32 362.77,153.36 362.77,153.36 2.09,-255.74 0,-1273.34 0,-1273.34 -10.68,261.19 -156.51,539.63 -246.85,602.68z"/>
   <path class="fil39" d="M6846.13 3710.06c-60.45,169.48 7.63,580.68 17.24,672.79 -26.31,125.91 -2.78,155.2 79.19,180.58 136.84,42.37 539.68,14.14 605.81,-22.23 81.65,-44.77 26.71,-319.27 62.05,-383.48l-764.29 -447.66z"/>
   <path class="fil12" d="M6887.7 3695.01c-90.31,104.78 -13.47,653.55 -13.47,750.55 -41.36,159.41 481.23,95.64 528.79,64.74 5.75,-121.47 43.38,-226.18 -219.93,-577.87 -197.85,-264.17 -295.39,-237.42 -295.39,-237.42z"/>
   <path class="fil12" d="M7143.22 3420.09c-84.37,25.56 -255.57,206.39 -255.52,285.48 0.04,56.16 336.18,303.79 465.01,417.71 128.83,113.92 180.33,318.18 312.56,506.47 132.23,188.29 592.8,-1049.19 627.76,-1135.35 34.95,-86.17 27.12,-751.5 27.12,-751.5 -42.92,-16.76 -268.91,73.7 -268.91,73.7 110.04,345.9 -447.33,953.64 -908.02,603.49z"/>
   <path class="fil13" d="M7129.04 3452.54c-91.13,69.71 -183.63,145.01 -210.38,270.16 102.49,129.89 339.76,271.13 502.39,386.03 162.61,114.9 291.87,479.02 291.87,479.02 213.04,-141.51 461.57,-905.56 518.02,-1089.68 56.46,-184.05 86.86,-584.97 62.09,-677.19 -79.83,-15.53 -217.54,20.36 -217.54,20.36 41.57,513.42 -563.64,899.64 -946.45,611.3z"/>
   <path class="fil5" d="M7799 3800.34c-75.02,-26.48 -210.83,-13.08 -279.91,108.82 -69.08,121.93 271.87,511.85 466.58,490.05 194.75,-21.74 188.5,-228.14 122.11,-284.96 -66.53,-56.69 -197.36,-67.67 -190.29,-25.11 7.14,42.68 61.79,109.94 3.96,163.32 -57.78,53.32 -336.31,-161.63 -273.62,-285.5 62.61,-123.91 119.35,-5.95 159.22,-26.67 39.94,-20.64 54.37,-117.84 -8.05,-139.95z"/>
   <path class="fil5" d="M8177.7 4153.02c-85.75,-32.9 -102.17,-163.18 -44.96,-193.02 50.2,-26.13 122.16,28.91 142.47,118.09 14.43,63.35 -55.1,91.17 -97.51,74.93zm-129.17 -257.09c-94.86,29.78 -77.88,193.06 30.21,302.47 79.37,80.49 179.48,132.08 241.31,55.98 89.83,-110.42 -45.63,-429.35 -271.52,-358.45z"/>
   <path class="fil5" d="M8417.25 4069.36c-37.92,-22.1 -127.83,-176.7 -101.95,-202.48 51.54,-51.31 140.03,-27.15 179.41,94.85 15.71,48.61 -14.33,144.7 -77.46,107.63zm32.77 114.23c151.8,-3.01 193.62,-169.12 104.26,-350.3 -76.58,-155.31 -287.83,-204.9 -351.97,-113.09 -59.88,85.57 2.47,158.47 55.76,236.9 82.93,121.74 94.4,228.44 191.95,226.49z"/>
   <path class="fil5" d="M8160.27 3550.26c21.66,45.38 130.94,34.9 273.29,208.64 93.5,114.26 90.81,215.61 131.43,227.26 40.54,11.7 165.83,-89.52 175.56,-163.82 9.68,-74.28 -75.4,-228.77 -114.6,-221.11 -39.24,7.65 8.23,81.8 11.3,123.01 3.1,41.21 -43.99,126.19 -76.83,97.9 -32.88,-28.38 -147.88,-329.96 -224.77,-358.28 -76.83,-28.39 -187.6,60.69 -175.38,86.4z"/>
   <path class="fil5" d="M8194.23 4565.87c25.64,-22.37 148.87,-67.15 169.94,-43.12 21.07,24.02 64.98,85.68 44.54,125.49 -20.46,39.86 -124.41,92.27 -162.51,48.5 -38.18,-43.75 -68.55,-116.32 -51.97,-130.87z"/>
   <path class="fil5" d="M8426.68 4478.8c0.48,26.73 43.61,119.48 76.54,130.5 32.82,11.01 156.33,-83.47 149.32,-128.1 -7.12,-44.66 -34.57,-126.66 -78.92,-112.07 -44.38,14.51 -147.47,75.9 -146.94,109.67z"/>
   <path class="fil5" d="M7894.19 4499.66c185.54,175.05 758.97,-92.52 824.39,-441.62 81.32,-19.95 90.81,-84.13 10.62,-84.81 -80.21,-0.79 -83.29,57.9 -63.3,92.87 20.1,34.92 -58.63,231.25 -343.1,374.61 -284.54,143.28 -404.92,64.63 -403.83,28.46 1.05,-36.21 -35.33,-130.46 -96.86,-30.79 -61.52,99.67 47.39,91.74 72.08,61.28z"/>
   <path class="fil12" d="M7371.43 4455.98c46.64,8.98 142.51,18.87 142.51,18.87 -11.74,49.21 -217.09,81.92 -444.07,58.76l301.56 -77.63z"/>
   <path class="fil13" d="M6936.65 3713.97c-107.25,30.55 -43.55,613.23 -42.64,697.35 132.29,41.08 293.86,5.29 321.89,-43.89 -2.07,-201.59 -122.66,-698.09 -279.25,-653.46z"/>
   <path class="fil13" d="M6894.32 4476.24c1.65,54.74 240.67,75.23 391.24,-6.35 -214.87,-7 -392.97,-54.74 -391.24,6.35z"/>
   <path class="fil40" d="M9898.88 4014.02c5.82,139.79 -558.77,95.92 -584.59,-48.27 -25.84,-144.31 576.28,-149.18 584.59,48.27z"/>
   <path class="fil0" d="M8452.58 2748.57c87.16,-81.28 185.73,-17.76 338.2,18.67 316.72,75.68 787.81,107.83 942.33,297.15 110.39,135.07 -10.11,427.33 -214,416.15 -221.71,-12.24 -511.76,-78.13 -638.96,-66.19l-427.57 -665.78z"/>
   <path class="fil0" d="M9290.71 3260.61c-93.77,258.2 171.97,1115.81 158.78,1348.08 27.36,127.8 294.34,191 329.56,6.06 28.92,-406.5 183.41,-1258.94 -56.43,-1564.52l-431.91 210.38z"/>
   <path class="fil36" d="M9221.15 2818.74c184.65,16.68 458.46,92.75 565.43,233.1 200.91,263.64 121.81,833.26 112.3,962.18 -98.13,-121.66 -503.35,-89.85 -584.59,-48.27 -10.31,-122.35 -72.72,-364.83 -67.23,-460.41 -96.29,8.19 -158.44,-20.28 -158.44,-20.28l132.53 -666.32z"/>
   <path class="fil39" d="M8401.17 2660.71c189.75,-31.91 616.35,108.29 712.53,110.97 96.17,2.6 124.86,2.06 152.08,60.61 27.26,58.46 -29.7,589.33 -115.01,681.24 -37.67,24.56 -70.98,3.59 -111.25,-17.45 -41.42,-21.58 -90.16,-43.24 -158.5,-15.23l-479.85 -820.14z"/>
   <path class="fil12" d="M9132.35 3330.55c-3.31,92.06 -36.95,155.81 -36.95,155.81 50.45,0.54 111.88,-120.99 144.48,-346.74l-107.53 190.93z"/>
   <path class="fil12" d="M8410.69 2688.88c70.06,-7.43 257.78,22.57 434.67,52.65 160.45,27.32 311.99,54.56 358.77,53.87 89.92,80.12 57.14,492.22 -86.07,589.95 -121.9,25.4 -349.72,-90.84 -550.49,-337.49 -200.79,-246.8 -156.88,-358.98 -156.88,-358.98z"/>
   <path class="fil13" d="M8400.27 2701.04c135.52,-19.66 314.17,13.32 461.54,46.3 120.69,27.02 220.42,54.11 258.24,52.19 49.11,129.56 24.67,411.79 -22.86,442.79 -201.33,10.25 -596.22,-246.5 -696.92,-541.28z"/>
   <path class="fil13" d="M9190.4 2794.94c53.8,9.95 80.68,344.83 -22.79,481.28 25.72,-213.36 -37.36,-492.37 22.79,-481.28z"/>
   <path class="fil38" d="M9293.08 2870.86c146.06,17.9 338.9,72.54 430.22,178.69 86.59,100.71 126.02,582.44 38.42,860.9 -207.72,-44.28 -397.43,8.64 -397.43,8.64 -34.06,-114.44 -84.14,-349.01 -56.78,-428.21 27.41,-79.13 194.75,-262.49 194.75,-262.49 -94.06,33.9 -211.36,193.84 -211.36,193.84 -35.35,1.23 -35.35,1.23 -35.35,1.23 48.09,-117.24 41.89,-448.6 37.53,-552.6z"/>
   <path class="fil37" d="M9332.7 2834.28c30.31,113.71 -51.5,579.84 -111.85,672.36 16.59,-1.07 26.21,-1.3 26.21,-1.3 76.32,-37.96 245.81,-484.49 186.36,-647.95 -49.47,-15.54 -100.72,-23.11 -100.72,-23.11z"/>
   <path class="fil37" d="M9290.9 3422.23c82.15,-136.91 265.32,-358.99 282.5,-517.47 56.77,11.32 115.8,60.38 115.8,60.38 2.22,100.4 -293.41,363.27 -412.55,511.12l14.25 -54.03z"/>
   <path class="fil37" d="M9806.16 3079.7c-44.62,59.99 -228.66,109.12 -361.87,224.91 111.22,-52.5 274.42,-49.51 420.98,-99.1 -9.78,-50.05 -59.11,-125.81 -59.11,-125.81z"/>
   <path class="fil37" d="M9250.03 3484.14c79.37,-79.43 243.37,-167.36 646.18,-160.02 10.67,30.46 15.64,98.19 15.64,98.19 -216.78,-3.98 -537.68,26.63 -663.59,128.94 -11.8,-42.7 1.77,-67.11 1.77,-67.11z"/>
   <path class="fil37" d="M9920.12 3536.87c5.75,53.57 1.88,119.38 1.88,119.38 -176.1,-35.59 -554.9,-54.72 -655.05,37.13 0,0 -11.02,-74.48 -14.02,-99.73 82.74,-63.82 461.38,-101.24 667.19,-56.78z"/>
   <path class="fil37" d="M9916.85 3797.84c-214.15,-92.12 -529.33,-80.34 -629.3,-3.7 7.97,43.65 17.44,99.42 17.44,99.42 112.01,-52.45 348.45,-67.78 603.17,18.95 0,0 7.64,-96.12 8.69,-114.67z"/>
   <path class="fil41" d="M9357.97 3868.23c-24.78,9.62 -35.31,-69.23 -20.38,-94.48 14.97,-25.25 270.7,-75.14 445.3,-12.9 6.09,20.08 -21.88,103.6 -21.88,103.6 -156.18,-44.62 -310.1,-32.27 -403.04,3.78z"/>
   <path class="fil41" d="M9310.52 3663.52c-6.47,-21.89 -1.5,-95.43 -1.5,-95.43 93.62,-40.71 337.84,-86.32 501.28,-38.34 -0.49,33.75 -9.1,90.68 -9.1,90.68 -122.76,-21.96 -385.97,-21.04 -490.68,43.09z"/>
   <path class="fil41" d="M9309.13 3503.73c2.71,-34.82 12.67,-63.44 12.67,-63.44 77.6,-90.68 355.41,-133.77 470.87,-112.03 17.59,28.23 7.59,82.11 7.59,82.11 -124.26,-8.19 -355.78,9.18 -491.13,93.36z"/>
   <path class="fil41" d="M9307.02 3262.14c-5.11,17.98 35.95,16.76 63.17,-14.08 27.22,-30.84 75.23,-242.98 72.03,-353.33 -41.39,-22.73 -94.63,-13.47 -94.63,-13.47 -14.81,135.46 -28.01,336.72 -40.57,380.88z"/>
   <path class="fil41" d="M9444.52 3265.81c-48.09,46.84 -28.72,-20.74 26.77,-100.25 55.38,-79.51 86.96,-267 183.62,-200.81 73.92,50.59 -192.87,283.92 -210.39,301.06z"/>
   <path class="fil41" d="M9439.14 3300.94c-5.37,-16.46 263.37,-173.34 322.99,-171.81 40.46,38.96 15.95,87.55 15.95,87.55 -84.97,33.98 -336.23,92.6 -338.94,84.26z"/>
   <path class="fil0" d="M9968.99 4973.61c12.72,-51.62 -12.13,-205.01 -58.94,-215.92 -43.85,-10.19 -52.64,100.16 -52.64,100.16 -3.16,57.79 21.8,122.9 21.8,122.9l89.78 -7.14z"/>
   <path class="fil0" d="M9448.13 4548.61c1.31,21.21 -133.58,297.25 -122.27,454.52 6.88,95 521.4,49.55 544.78,-69.41 14.78,-75.57 -95.3,-327.7 -95.3,-327.7l-327.21 -57.41z"/>
   <path class="fil0" d="M9325.6 4998.08c0.34,96.56 117.72,436.24 159.94,449.9 101.1,32.63 -26.55,-342.06 -15.04,-400.98l-144.9 -48.92z"/>
   <path class="fil0" d="M9418.54 5031.36c8.19,41.96 107.37,149.45 144.75,161.22 37.37,11.61 138.84,-21.36 125.27,-69.74 -13.54,-48.4 -44.33,-114.68 -44.33,-114.68l-225.69 23.2z"/>
   <path class="fil0" d="M9537.6 5021.66c13.09,40.83 115.58,135.16 154.15,142.34 38.5,7.26 135.47,-37.48 116.25,-83.96 -19.17,-46.31 -57.48,-108.65 -57.48,-108.65l-212.92 50.27z"/>
   <path class="fil0" d="M9649.42 4966.13c11.66,41.36 110.84,139.11 149.07,147.79 38.24,8.47 126.85,-40 109.34,-87.11 -17.53,-46.99 -43.85,-103.36 -43.85,-103.36l-214.56 42.68z"/>
   <path class="fil0" d="M9757.18 4919.96c11.76,36.17 103.09,119.45 137.34,125.8 34.1,6.24 63.91,-30.68 72.71,-60.5 16.5,-55.79 -7.26,-142.3 -7.26,-142.3l-202.79 77z"/>
   <path class="fil0" d="M9864.51 4861.64c3.91,23.8 5.57,30.01 5.57,30.01 14.89,2.41 42.67,20.94 50.3,31.65l-55.87 -61.66z"/>
   <path class="fil1" d="M9370.11 3984.51c18.16,203.32 90.01,523.8 96.36,564.67 6.35,40.9 151.22,64.59 189.83,14.13 38.61,-50.56 56.58,-557.48 56.58,-557.48 -161.81,-63.99 -322.88,-34.18 -342.77,-21.32z"/>
   <path class="fil1" d="M9476.48 4551.02c-25.61,23.99 -130.09,334.88 -137.01,418.91 -6.88,84.03 95.05,412.74 140.99,460.9 45.87,48.05 14.1,-123.17 -45.19,-314.35 -41.7,-55.72 -51.25,-97.83 -37.79,-107.98 7.86,-5.94 38.51,36.96 76.33,79.85 42.14,47.86 93.2,95.69 131.47,75.8 -45.68,-54.67 -136.06,-154.93 -90.46,-173.32 16.55,-6.69 41.02,34.86 74.33,76.4 36.28,45.3 83.06,90.57 141.44,73.38 -67.3,-67.29 -145.68,-179.29 -100.08,-197.86 10.75,-4.44 39.03,35.26 72.97,75 36.36,42.53 79.22,85.04 114.11,73.43 49.63,-16.55 -138.62,-161.71 -86.85,-195.44 17.9,-11.61 42.08,25.53 70.35,62.69 28.23,37.07 60.61,74.14 94.93,62.78 26.06,-8.65 -6.43,-55.8 -37.6,-86.47 -77.6,-76.44 -86.17,-299.35 -205.92,-365.41l-176.02 -18.31z"/>
   <path class="fil42" d="M9446.36 5380.41c1.32,-7.41 37.15,-20.45 46.84,-10.94 9.67,9.44 18.28,62.53 -0.78,71.32 -18.13,8.54 -47.49,-52.89 -46.06,-60.38z"/>
   <path class="fil2" d="M9910.05 4757.69c-26.32,26.51 -13.54,152.23 -4.52,175.32 -29.44,-33.13 -44.66,-68.62 -46.02,-92.38 12.11,-97.27 50.54,-82.94 50.54,-82.94z"/>
   <path class="fil39" d="M7313.18 3240.25c-59.84,-12.01 -156.76,96.96 -153.78,128.41 96.33,165.61 364.42,237.24 673.21,-36.73 308.77,-274.04 226.46,-501.17 193.42,-525.28 -47.41,-28.85 -190.47,29.54 -183.28,66.04 88.56,206.47 -277.86,625.38 -529.57,367.56z"/>
   <path class="fil12" d="M7863.14 2887.54c-14.32,-41.48 104.47,-106.83 137.23,-70.64 55.59,61.3 120.57,388.99 -240.02,626.99 -324.11,213.97 -546.84,-29.39 -549.9,-73.77 -3.01,-44.31 86.74,-152.37 119.24,-107.6 32.39,44.62 132.87,168.66 343.96,22.65 211.07,-145.93 222.61,-301.51 189.49,-397.63z"/>
   <path class="fil13" d="M7324.08 3307.06c203.37,186.19 617.05,-121.83 560.61,-410.95 103.17,-86.93 193.68,163.38 2.19,401.15 -157.82,195.99 -372.09,233.03 -483.64,177.7 -160.69,-79.74 -129.58,-214.12 -79.16,-167.9z"/>
   <path class="fil13" d="M7947.82 5754.8c-22.65,17.56 -22.85,72.6 -11.35,98.66 66.89,72.11 290.28,129.52 370.07,137.53l6.81 -91.51c-96.15,-2.64 -285.44,-69.64 -365.53,-144.68z"/>
   <path class="fil43" d="M8340.05 11342.13l-85.51 0 0 -2384.4c29.86,-66.93 58.6,-140.2 85.51,-216.12l0 2600.52z"/>
   <path class="fil44" d="M8340.05 6099.75c-2.77,-0.52 -5.52,-1.05 -8.27,-1.53l-77.24 -76.78 0 -4.1c27.62,7.04 56.13,13.69 85.51,19.97l0 62.44z"/>
   <path class="fil44" d="M8254.54 8957.73l0 -704.65c29.87,-106.25 58.78,-214.97 85.51,-322.2l0 810.73c-26.91,75.92 -55.65,149.19 -85.51,216.12zm85.51 -2024.75c-28.36,-23.61 -57.81,-49.93 -85.51,-80.01l0 -89.63c25.83,15.41 54.77,31.43 85.51,47.64l0 122zm-8.27 -834.76c-27.08,-5.12 -52.8,-10.34 -77.24,-15.72l0 -61.06 77.24 76.78z"/>
   <path class="fil45" d="M8254.54 8253.08l0 -763.4c64.32,-297.66 68.11,-390.26 44.84,-417.97 -7.65,-9.1 -24.24,-32.67 -44.84,-66.43l0 -152.31c27.7,30.08 57.15,56.4 85.51,80.01l0 997.9c-26.73,107.23 -55.64,215.95 -85.51,322.2zm85.51 -1442.1c-30.74,-16.21 -59.68,-32.23 -85.51,-47.64l0 -93.54c27.24,18.31 55.84,35.79 85.51,52.44l0 88.74zm0 -661.86c-29.26,-6.46 -57.83,-13.46 -85.51,-20.98l0 -45.64c24.44,5.38 50.16,10.6 77.24,15.72 2.75,0.48 5.5,1.01 8.27,1.53l0 49.37z"/>
   <path class="fil46" d="M8340.05 6722.24c-29.67,-16.65 -58.27,-34.13 -85.51,-52.44l0 -541.66c27.68,7.52 56.25,14.52 85.51,20.98l0 573.12z"/>
   <path class="fil46" d="M8254.54 7489.68l0 -484.4c20.6,33.76 37.19,57.33 44.84,66.43 23.27,27.71 19.48,120.31 -44.84,417.97z"/>
   <path class="fil47" d="M8340.05 6037.31c-29.38,-6.28 -57.89,-12.93 -85.51,-19.97l0 -23.01c28.49,6.58 57.14,11.99 85.51,15.94l0 27.04zm0 -149.98c-27.9,-5 -56.64,-11.24 -85.51,-18.61l0 -21.21c28.4,6.85 57.07,12.52 85.51,16.81l0 23.01z"/>
   <path class="fil48" d="M8340.05 6010.27c-28.37,-3.95 -57.02,-9.36 -85.51,-15.94l0 -11.62c20.54,4.11 38.37,6.88 52,8.28l6.81 -91.51c-17.05,-0.46 -37.03,-2.94 -58.81,-7.15l0 -23.61c28.87,7.37 57.61,13.61 85.51,18.61l0 122.94z"/>
   <path class="fil48" d="M8340.05 5864.32c-28.44,-4.29 -57.11,-9.96 -85.51,-16.81l0 -32.07c34.73,7.72 57.9,11.59 57.9,11.59 1.58,-193.18 0.77,-821.05 0.28,-1116.71 9.1,-2.03 18.35,-5.11 27.33,-8.88l0 1162.88zm-85.51 -1024.85l0 -135.32c9.33,6.4 20.96,9.14 33.64,9.14 0.85,0 1.7,0 2.57,-0.04 -9.67,43.28 -22.04,85.73 -36.21,126.22z"/>
   <path class="fil49" d="M8312.44 5827.03c0,0 -23.17,-3.87 -57.9,-11.59l0 -975.97c14.17,-40.49 26.54,-82.94 36.21,-126.22 7.09,-0.19 14.49,-1.2 21.97,-2.93 0.49,295.66 1.3,923.53 -0.28,1116.71z"/>
   <path class="fil48" d="M8254.54 4535.76l0 -18.5c28.52,-10.19 57.18,-22.33 85.51,-36.17l0 34.78c-22.7,0.15 -56.01,8.98 -85.51,19.89z"/>
   <path class="fil47" d="M8254.54 4472.29l0 -181.1c18.81,-1.77 36.48,-8.99 52.26,-22.9 -12.62,69.48 -27.51,136.48 -43.94,200.47 -2.78,1.2 -5.58,2.37 -8.32,3.53zm0 -331.6l0 -116.97c8.94,16.06 16.1,34.32 20.67,54.37 6.39,28.08 -3.73,49.21 -20.67,62.6zm85.51 -175.5c-22.69,-43.2 -37.28,-85.84 -24.75,-98.31 7.54,-7.52 15.89,-13.41 24.75,-17.62l0 115.93zm-85.51 -282.85l0 -74.38c24.87,13.09 53.68,30.53 85.51,56.4l0 12.32c-11.14,-1.68 -22.08,-2.52 -32.7,-2.52 -18.96,0 -36.84,2.67 -52.81,8.18z"/>
   <path class="fil48" d="M8262.86 4468.76c16.43,-63.99 31.32,-130.99 43.94,-200.47 4.59,-4.06 9,-8.68 13.25,-13.91 8.78,-10.79 15.4,-23.58 20,-37.79l0 215.25c-5.66,2.97 -11.42,5.94 -17.25,8.87 -20.86,10.53 -40.83,19.81 -59.94,28.05z"/>
   <path class="fil46" d="M8254.54 4291.19l0 -150.5c16.94,-13.39 27.06,-34.52 20.67,-62.6 -4.57,-20.05 -11.73,-38.31 -20.67,-54.37l0 -71.81c1.18,1.73 2.36,3.46 3.53,5.19 36.82,54.03 59.55,105.12 81.98,145.05l0 114.44c-4.6,14.21 -11.22,27 -20,37.79 -4.25,5.23 -8.66,9.85 -13.25,13.91 -15.78,13.91 -33.45,21.13 -52.26,22.9z"/>
   <path class="fil46" d="M8340.05 4102.15c-22.43,-39.93 -45.16,-91.02 -81.98,-145.05 -1.17,-1.73 -2.35,-3.46 -3.53,-5.19l0 -269.57c15.97,-5.51 33.85,-8.18 52.81,-8.18 10.62,0 21.56,0.84 32.7,2.52l0 172.58c-8.86,4.21 -17.21,10.1 -24.75,17.62 -12.53,12.47 2.06,55.11 24.75,98.31l0 136.96z"/>
   <path class="fil43" d="M8254.54 2697.29l0 -953.44c52.79,-45.15 71.12,-81.66 46.84,-142.04 -11.13,-27.55 -27.02,-53.1 -46.84,-76.83l0 -1408.55 85.51 0 0 2568.62c-29.61,2.45 -58.17,6.66 -85.51,12.24z"/>
   <path class="fil50" d="M8254.54 1743.85l0 -168.28c5.93,4.97 11.05,9.64 15.26,14.08l0 0c-3.69,-10.33 -8.81,-20.9 -15.26,-31.61l0 -33.06c19.82,23.73 35.71,49.28 46.84,76.83 24.28,60.38 5.95,96.89 -46.84,142.04z"/>
   <path class="fil51" d="M8269.8 1589.65c-4.21,-4.44 -9.33,-9.11 -15.26,-14.08l0 -17.53c6.45,10.71 11.57,21.28 15.26,31.61z"/>
   <path class="fil47" d="M8340.05 3465.77c-1.48,-0.76 -2.95,-1.37 -4.4,-1.91 -10.36,-3.83 -21.33,-5.51 -32.54,-5.51 -0.56,0 -1.13,0 -1.72,0 25.26,-163.61 18.76,-715.45 18.76,-715.45 -3.63,-1.45 -8.57,-2.06 -14.58,-2.06 -12.92,0 -30.75,2.98 -51.03,7.73l0 -51.28c27.34,-5.58 55.9,-9.79 85.51,-12.24l0 780.72z"/>
   <path class="fil48" d="M8254.54 3467.46l0 -65.28c40.75,-201.72 59.53,-502.93 38.49,-581.3 -11.78,-2.29 -24.83,-3.44 -38.49,-3.75l0 -68.56c20.28,-4.75 38.11,-7.73 51.03,-7.73 6.01,0 10.95,0.61 14.58,2.06 0,0 6.5,551.84 -18.76,715.45 -15.55,0.23 -31.5,3.67 -46.85,9.11z"/>
   <path class="fil49" d="M8254.54 3402.18l0 -585.05c13.66,0.31 26.71,1.46 38.49,3.75 21.04,78.37 2.26,379.58 -38.49,581.3z"/>
   <path class="fil46" d="M8340.05 3664.36c-31.83,-25.87 -60.64,-43.31 -85.51,-56.4l0 -140.5c15.35,-5.44 31.3,-8.88 46.85,-9.11 0.59,0 1.16,0 1.72,0 11.21,0 22.18,1.68 32.54,5.51 1.45,0.54 2.92,1.15 4.4,1.91l0 198.59z"/>
   <path class="fil46" d="M8288.18 4713.29c-12.68,0 -24.31,-2.74 -33.64,-9.14l0 -168.39c29.5,-10.91 62.81,-19.74 85.51,-19.89l0 185.57c-8.98,3.77 -18.23,6.85 -27.33,8.88 -7.48,1.73 -14.88,2.74 -21.97,2.93 -0.87,0.04 -1.72,0.04 -2.57,0.04z"/>
   <path class="fil46" d="M8254.54 4517.26l0 -44.97c2.74,-1.16 5.54,-2.33 8.32,-3.53 19.11,-8.24 39.08,-17.52 59.94,-28.05 5.83,-2.93 11.59,-5.9 17.25,-8.87l0 49.25c-28.33,13.84 -56.99,25.98 -85.51,36.17z"/>
   <path class="fil49" d="M8306.54 5990.99c-13.63,-1.4 -31.46,-4.17 -52,-8.28l0 -90.38c21.78,4.21 41.76,6.69 58.81,7.15l-6.81 91.51z"/>
   <polygon class="fil52" points="8340.05,11342.13 11872.04,11342.13 11872.04,116.43 8340.05,116.43 "/>
   <path class="fil40" d="M8159.51 4579.29c-57.39,127.57 -549.48,-214.75 -499.77,-352.66 49.74,-137.86 577.39,180.09 499.77,352.66z"/>
   <path class="fil0" d="M7454.56 4830.06c24.23,-368.56 461.53,-912.36 500.47,-1125.5 52.2,-146.72 322.56,-21.53 291.67,140.86 -30.87,162.29 -156.34,1314.1 -573.31,1505.02l-218.83 -520.38z"/>
   <path class="fil36" d="M7665.27 4211.63c75.83,198.71 333.62,361.46 495.27,361.46 -47.88,301.6 -333.32,882.66 -660.95,849.47 -372.02,-95.47 -143.21,-717.69 165.68,-1210.93z"/>
   <path class="fil38" d="M7687.37 4331.35c-188.29,226.55 -292.79,521.84 -278.03,722.91 14.75,201.07 78.57,322.32 266.89,217.01 220.54,-123.36 340.2,-536.97 363.19,-686.6 -149.36,-34.7 -305.62,-173.47 -352.05,-253.32z"/>
   <path class="fil37" d="M7612.13 4302.17c25.36,178.36 378.92,395.78 524.65,372.5 0,0 -18.91,72.34 -33.8,105.58 -141.15,0 -497.21,-156.78 -543.16,-378.15 11.46,-46.06 52.31,-99.93 52.31,-99.93z"/>
   <path class="fil37" d="M7503.29 4498.57c3.37,109.98 295.81,388.42 564.14,381.01 -17.8,49.37 -45.46,93.39 -45.46,93.39 -123.93,18.84 -495.42,-143.31 -567.41,-369.2 11.25,-42.19 48.73,-105.2 48.73,-105.2z"/>
   <path class="fil37" d="M7419.36 4681.26c3.37,109.96 274.42,400.07 550.71,387.1 -19.58,36.13 -61.05,92.75 -61.05,92.75 -135.43,17.03 -460.62,-142.57 -532.62,-368.49 11.26,-42.18 42.96,-111.36 42.96,-111.36z"/>
   <path class="fil37" d="M7347.25 4885.82c9.54,121.14 269.27,387.25 504.62,351.57 -27.04,37.71 -76.54,77.45 -76.54,77.45 -108.67,18.65 -416.65,-125.01 -448.57,-314.87 1.58,-54.25 20.49,-114.15 20.49,-114.15z"/>
   <path class="fil37" d="M7317.98 5134.94c11.16,138.81 126.87,285.17 216.22,288.97 59.64,0 107.21,-24.02 107.21,-24.02 -92.85,-10.53 -269.95,-160.36 -323.43,-264.95z"/>
   <path class="fil1" d="M7927.57 3842.23c-67.66,122.47 -216.1,412.07 -216.1,412.07 44.04,101.63 214.75,242.17 287.42,240.67 53.43,-144.46 91.47,-490.46 91.47,-490.46 -91.47,-41.77 -162.79,-162.28 -162.79,-162.28z"/>
   <path class="fil53" d="M8340.05 3965.11l0 -880.52c0,0 82.01,-27.85 140.61,-27.85 17.75,0 33.35,2.53 43.87,9.18 38.96,24.72 16.45,61.68 -36.14,102.63 60.46,-21.97 94.5,-39.11 117.65,-39.11 11.09,0 19.68,3.98 27.49,13.24 24.08,28.54 32.77,116.32 -228.49,295.01 127.15,-57.47 210.95,-116.32 255.17,-116.32 9.77,0 17.61,2.83 23.56,9.26 32.9,35.28 18.54,110.73 -204.89,259.73 40.52,-6.35 85.94,-10.33 125.77,-10.33 57.46,0 103.27,8.34 105.92,30 4.49,36.73 2.75,56.24 -222.18,178.95 -38.08,106.72 -148.34,176.13 -148.34,176.13z"/>
   <path class="fil0" d="M7936.38 3826.18c-57.13,-239.95 -23.25,-550.27 122.84,-584.48 123.53,-28.92 424.93,373.45 387.99,481.93 -36.93,108.51 -100.08,261.75 -250.06,280.88l-260.77 -178.33z"/>
   <path class="fil0" d="M8020.83 3259.53c55.11,-71.16 228.36,-193.68 436.48,-211.59 68.82,-5.89 129.3,55.4 0,94.36 -86.36,25.94 -215.78,118.54 -289.57,169.43l-146.91 -52.2z"/>
   <path class="fil0" d="M8133.52 3336.37c68.81,-74.23 270.3,-194.76 415.2,-222.01 67.88,-12.78 125.31,29.24 28.86,103.09 -71.65,54.71 -242.15,168.28 -318.07,215.8l-125.99 -96.88z"/>
   <path class="fil0" d="M8293.03 3494.4c52.8,-35.9 189.91,-129.72 313.54,-178.62 57.93,-22.88 115.97,4.59 43.15,86.32 -54.08,60.77 -210.87,152.06 -279.33,194.92l-77.36 -102.62z"/>
   <path class="fil0" d="M8397.53 3645.61c26.62,-13.39 158.46,-62.67 263.29,-68.18 49.9,-2.68 80.25,38.49 1.66,77.59 -58.41,29.16 -176.61,83.96 -239.82,102.39l-25.13 -111.8z"/>
   <path class="fil1" d="M8020.83 3281.57c-39.31,19.75 -5.61,113.57 40.33,177.47 51.6,71.71 284.64,315.61 342.37,278.21 95.31,-61.72 -264.73,-514.98 -382.7,-455.68z"/>
   <path class="fil1" d="M8365.58 3673.01c67.93,-42.32 222.03,-78.52 272.88,-82.11 52.01,-3.68 4.75,39.56 -84.41,76.45 -74.17,30.74 -146.97,65.59 -146.97,65.59l-41.5 -59.93z"/>
   <path class="fil1" d="M8282.61 3536.64c21.54,-32.3 105.62,-95.74 167.7,-131.7 62.09,-35.89 180.13,-115.71 202.13,-78.06 18.88,32.29 -86.18,103.23 -148.42,143.95 -62.23,40.63 -183.11,130.4 -183.11,130.4l-38.3 -64.59z"/>
   <path class="fil1" d="M8144.97 3358.33c35.24,-46.6 142.59,-123.44 211.65,-160.25 69.13,-36.88 215.99,-101.93 243.15,-58.77 22.74,36.12 -130.14,108.75 -199.55,150.76 -69.44,42.09 -204.74,135.45 -204.74,135.45l-50.51 -67.19z"/>
   <path class="fil1" d="M8020.23 3280.2c50.5,-71.4 154.89,-134.84 245.25,-174.18 90.36,-39.41 241.78,-72.85 245.31,-30.15 4.08,49.13 -123.37,66.04 -209.05,113.34 -85.69,47.21 -185.26,115.17 -196.42,141.42l-85.09 -50.43z"/>
   <path class="fil42" d="M8516.59 3138.01c6.06,-16.07 69.46,-30.61 79.93,-4.9 9.84,24.11 -41.82,64.13 -58.05,54.57 -16.2,-9.49 -28.24,-32.76 -21.88,-49.67z"/>
   <path class="fil42" d="M8430.08 3063.86c7.9,-15.31 74.86,-15.84 80.27,7.34 5.91,25.41 -48.72,49.13 -64.28,44.47 -17.99,-5.44 -24.25,-35.82 -15.99,-51.81z"/>
   <path class="fil42" d="M8582.51 3344.86c1.53,-17.14 63.3,-43.01 77.08,-23.57 15.11,21.35 -26.48,63.98 -42.65,65.51 -18.74,1.76 -36.03,-23.95 -34.43,-41.94z"/>
   <path class="fil42" d="M8625.05 3593.5c11.63,-15.23 65.79,-12.17 65.79,3.98 0,16.37 -42.86,38.64 -56.96,28.92 -11.27,-7.8 -14.74,-25.17 -8.83,-32.9z"/>
  </g>
 </g>
</svg>
